<mxfile host="app.diagrams.net" agent="Mozilla/5.0 (Windows NT 10.0; Win64; x64) AppleWebKit/537.36 (KHTML, like Gecko) Chrome/134.0.0.0 Safari/537.36" version="26.1.3">
  <diagram name="페이지-1" id="W31Y7p0b2JSPOWQSDRAC">
    <mxGraphModel dx="1657" dy="453" grid="1" gridSize="10" guides="1" tooltips="1" connect="1" arrows="1" fold="1" page="1" pageScale="1" pageWidth="827" pageHeight="1169" math="0" shadow="0">
      <root>
        <mxCell id="0" />
        <mxCell id="1" parent="0" />
        <mxCell id="_v2mFFpsIEogODoguo_k-1" value="clk_div_100" style="rounded=0;whiteSpace=wrap;html=1;" vertex="1" parent="1">
          <mxGeometry x="40" y="160" width="120" height="120" as="geometry" />
        </mxCell>
        <mxCell id="_v2mFFpsIEogODoguo_k-2" value="time_counter&lt;div&gt;milisecond&lt;/div&gt;" style="rounded=0;whiteSpace=wrap;html=1;" vertex="1" parent="1">
          <mxGeometry x="280" y="160" width="120" height="120" as="geometry" />
        </mxCell>
        <mxCell id="_v2mFFpsIEogODoguo_k-3" value="time_counter&lt;div&gt;&lt;span style=&quot;background-color: transparent; color: light-dark(rgb(0, 0, 0), rgb(255, 255, 255));&quot;&gt;second&lt;/span&gt;&lt;/div&gt;" style="rounded=0;whiteSpace=wrap;html=1;" vertex="1" parent="1">
          <mxGeometry x="280" y="320" width="120" height="120" as="geometry" />
        </mxCell>
        <mxCell id="_v2mFFpsIEogODoguo_k-4" value="time_counter&lt;div&gt;minute&lt;/div&gt;" style="rounded=0;whiteSpace=wrap;html=1;" vertex="1" parent="1">
          <mxGeometry x="280" y="480" width="120" height="120" as="geometry" />
        </mxCell>
        <mxCell id="_v2mFFpsIEogODoguo_k-5" value="time_counter&lt;div&gt;hour&lt;/div&gt;" style="rounded=0;whiteSpace=wrap;html=1;" vertex="1" parent="1">
          <mxGeometry x="280" y="640" width="120" height="120" as="geometry" />
        </mxCell>
        <mxCell id="_v2mFFpsIEogODoguo_k-7" value="" style="endArrow=classic;html=1;rounded=0;" edge="1" parent="1">
          <mxGeometry width="50" height="50" relative="1" as="geometry">
            <mxPoint x="-20" y="185" as="sourcePoint" />
            <mxPoint x="40" y="185" as="targetPoint" />
          </mxGeometry>
        </mxCell>
        <mxCell id="_v2mFFpsIEogODoguo_k-10" value="" style="endArrow=classic;html=1;rounded=0;entryX=0;entryY=0.333;entryDx=0;entryDy=0;entryPerimeter=0;" edge="1" parent="1" target="_v2mFFpsIEogODoguo_k-2">
          <mxGeometry width="50" height="50" relative="1" as="geometry">
            <mxPoint x="160" y="200" as="sourcePoint" />
            <mxPoint x="210" y="150" as="targetPoint" />
          </mxGeometry>
        </mxCell>
        <mxCell id="_v2mFFpsIEogODoguo_k-11" value="o_clk" style="text;html=1;align=center;verticalAlign=middle;whiteSpace=wrap;rounded=0;" vertex="1" parent="1">
          <mxGeometry x="150" y="170" width="60" height="30" as="geometry" />
        </mxCell>
        <mxCell id="_v2mFFpsIEogODoguo_k-12" value="tick" style="text;html=1;align=center;verticalAlign=middle;whiteSpace=wrap;rounded=0;" vertex="1" parent="1">
          <mxGeometry x="220" y="170" width="60" height="30" as="geometry" />
        </mxCell>
        <mxCell id="_v2mFFpsIEogODoguo_k-15" value="" style="endArrow=classic;html=1;rounded=0;" edge="1" parent="1">
          <mxGeometry width="50" height="50" relative="1" as="geometry">
            <mxPoint x="-20" y="270" as="sourcePoint" />
            <mxPoint x="40" y="270" as="targetPoint" />
          </mxGeometry>
        </mxCell>
        <mxCell id="_v2mFFpsIEogODoguo_k-16" value="" style="endArrow=classic;html=1;rounded=0;entryX=0;entryY=0.75;entryDx=0;entryDy=0;" edge="1" parent="1" source="_v2mFFpsIEogODoguo_k-19" target="_v2mFFpsIEogODoguo_k-2">
          <mxGeometry width="50" height="50" relative="1" as="geometry">
            <mxPoint y="270" as="sourcePoint" />
            <mxPoint x="50" y="220" as="targetPoint" />
            <Array as="points">
              <mxPoint y="320" />
              <mxPoint x="200" y="320" />
              <mxPoint x="200" y="250" />
            </Array>
          </mxGeometry>
        </mxCell>
        <mxCell id="_v2mFFpsIEogODoguo_k-17" value="run" style="text;html=1;align=center;verticalAlign=middle;whiteSpace=wrap;rounded=0;" vertex="1" parent="1">
          <mxGeometry x="-70" y="170" width="60" height="30" as="geometry" />
        </mxCell>
        <mxCell id="_v2mFFpsIEogODoguo_k-18" value="clear" style="text;html=1;align=center;verticalAlign=middle;whiteSpace=wrap;rounded=0;" vertex="1" parent="1">
          <mxGeometry x="-70" y="250" width="60" height="30" as="geometry" />
        </mxCell>
        <mxCell id="_v2mFFpsIEogODoguo_k-20" value="" style="endArrow=classic;html=1;rounded=0;entryDx=0;entryDy=0;" edge="1" parent="1" target="_v2mFFpsIEogODoguo_k-19">
          <mxGeometry width="50" height="50" relative="1" as="geometry">
            <mxPoint y="270" as="sourcePoint" />
            <mxPoint x="280" y="250" as="targetPoint" />
            <Array as="points" />
          </mxGeometry>
        </mxCell>
        <mxCell id="_v2mFFpsIEogODoguo_k-19" value="" style="shape=waypoint;sketch=0;fillStyle=solid;size=6;pointerEvents=1;points=[];fillColor=none;resizable=0;rotatable=0;perimeter=centerPerimeter;snapToPoint=1;" vertex="1" parent="1">
          <mxGeometry x="-10" y="260" width="20" height="20" as="geometry" />
        </mxCell>
        <mxCell id="_v2mFFpsIEogODoguo_k-21" value="" style="endArrow=classic;html=1;rounded=0;" edge="1" parent="1" target="_v2mFFpsIEogODoguo_k-22">
          <mxGeometry width="50" height="50" relative="1" as="geometry">
            <mxPoint x="400" y="200" as="sourcePoint" />
            <mxPoint x="520" y="200" as="targetPoint" />
          </mxGeometry>
        </mxCell>
        <mxCell id="_v2mFFpsIEogODoguo_k-22" value="msec" style="text;html=1;align=center;verticalAlign=middle;whiteSpace=wrap;rounded=0;" vertex="1" parent="1">
          <mxGeometry x="490" y="185" width="60" height="30" as="geometry" />
        </mxCell>
        <mxCell id="_v2mFFpsIEogODoguo_k-23" value="" style="endArrow=none;html=1;rounded=0;" edge="1" parent="1">
          <mxGeometry width="50" height="50" relative="1" as="geometry">
            <mxPoint x="430" y="210" as="sourcePoint" />
            <mxPoint x="450" y="190" as="targetPoint" />
          </mxGeometry>
        </mxCell>
        <mxCell id="_v2mFFpsIEogODoguo_k-24" value="7" style="text;html=1;align=center;verticalAlign=middle;whiteSpace=wrap;rounded=0;" vertex="1" parent="1">
          <mxGeometry x="400" y="170" width="60" height="30" as="geometry" />
        </mxCell>
        <mxCell id="_v2mFFpsIEogODoguo_k-25" value="" style="endArrow=classic;html=1;rounded=0;entryX=0;entryY=0.668;entryDx=0;entryDy=0;entryPerimeter=0;" edge="1" parent="1" target="_v2mFFpsIEogODoguo_k-3">
          <mxGeometry width="50" height="50" relative="1" as="geometry">
            <mxPoint x="400" y="245" as="sourcePoint" />
            <mxPoint x="240" y="360" as="targetPoint" />
            <Array as="points">
              <mxPoint x="440" y="245" />
              <mxPoint x="440" y="300" />
              <mxPoint x="240" y="300" />
              <mxPoint x="240" y="400" />
            </Array>
          </mxGeometry>
        </mxCell>
        <mxCell id="_v2mFFpsIEogODoguo_k-27" value="" style="endArrow=classic;html=1;rounded=0;entryX=0;entryY=0.668;entryDx=0;entryDy=0;entryPerimeter=0;" edge="1" parent="1">
          <mxGeometry width="50" height="50" relative="1" as="geometry">
            <mxPoint x="400" y="570" as="sourcePoint" />
            <mxPoint x="280" y="725" as="targetPoint" />
            <Array as="points">
              <mxPoint x="440" y="570" />
              <mxPoint x="440" y="625" />
              <mxPoint x="240" y="625" />
              <mxPoint x="240" y="725" />
            </Array>
          </mxGeometry>
        </mxCell>
      </root>
    </mxGraphModel>
  </diagram>
</mxfile>
